<svg width="16" height="16" viewBox="0 0 16 16" fill="none" xmlns="http://www.w3.org/2000/svg">
<path d="M9.40994 7.99994L15.7099 1.70994C15.8982 1.52164 16.004 1.26624 16.004 0.999941C16.004 0.73364 15.8982 0.478245 15.7099 0.289941C15.5216 0.101638 15.2662 -0.00415039 14.9999 -0.00415039C14.7336 -0.00415039 14.4782 0.101638 14.2899 0.289941L7.99994 6.58994L1.70994 0.289941C1.52164 0.101638 1.26624 -0.00415015 0.999939 -0.00415015C0.733637 -0.00415015 0.478243 0.101638 0.289939 0.289941C0.101635 0.478245 -0.00415253 0.73364 -0.00415254 0.999941C-0.00415254 1.26624 0.101635 1.52164 0.289939 1.70994L6.58994 7.99994L0.289939 14.2899C0.19621 14.3829 0.121816 14.4935 0.0710478 14.6154C0.0202791 14.7372 -0.00585938 14.8679 -0.00585938 14.9999C-0.00585938 15.132 0.0202791 15.2627 0.0710478 15.3845C0.121816 15.5064 0.19621 15.617 0.289939 15.7099C0.382902 15.8037 0.493503 15.8781 0.615362 15.9288C0.737221 15.9796 0.867927 16.0057 0.999939 16.0057C1.13195 16.0057 1.26266 15.9796 1.38452 15.9288C1.50638 15.8781 1.61698 15.8037 1.70994 15.7099L7.99994 9.40994L14.2899 15.7099C14.3829 15.8037 14.4935 15.8781 14.6154 15.9288C14.7372 15.9796 14.8679 16.0057 14.9999 16.0057C15.132 16.0057 15.2627 15.9796 15.3845 15.9288C15.5064 15.8781 15.617 15.8037 15.7099 15.7099C15.8037 15.617 15.8781 15.5064 15.9288 15.3845C15.9796 15.2627 16.0057 15.132 16.0057 14.9999C16.0057 14.8679 15.9796 14.7372 15.9288 14.6154C15.8781 14.4935 15.8037 14.3829 15.7099 14.2899L9.40994 7.99994Z" fill="white"/>
</svg>
